<svg xmlns="http://www.w3.org/2000/svg" viewBox="0 0 512 512" role="img" aria-label="Iron Brain">
  <defs>
    <radialGradient id="field" cx="50%" cy="30%" r="80%">
      <stop offset="0" stop-color="#151a22"/>
      <stop offset="0.62" stop-color="#07090d"/>
      <stop offset="1" stop-color="#030405"/>
    </radialGradient>
    <linearGradient id="rim" x1="74" x2="438" y1="36" y2="476" gradientUnits="userSpaceOnUse">
      <stop offset="0" stop-color="#4a5361"/>
      <stop offset="0.45" stop-color="#252d38"/>
      <stop offset="1" stop-color="#050608"/>
    </linearGradient>
    <filter id="drop" x="-20%" y="-20%" width="140%" height="150%" color-interpolation-filters="sRGB">
      <feDropShadow dx="0" dy="18" stdDeviation="18" flood-color="#000000" flood-opacity="0.42"/>
    </filter>
    <style>
      .ib {
        fill: #f4f0e6;
        font-family: Inter, Arial, Helvetica, sans-serif;
        font-size: 218px;
        font-weight: 950;
        font-style: italic;
        letter-spacing: -0.12em;
      }
    </style>
  </defs>

  <rect width="512" height="512" fill="#050608"/>
  <rect x="34" y="34" width="444" height="444" rx="102" fill="url(#rim)"/>
  <rect x="48" y="48" width="416" height="416" rx="92" fill="url(#field)"/>
  <path
    d="M48 324c40 88 126 132 228 132 82 0 149-28 188-78v86H48V48h108C88 84 48 150 48 234v90Z"
    fill="#111722"
    opacity="0.34"
  />

  <g filter="url(#drop)">
    <text class="ib" x="125" y="293">IB</text>
    <g fill="#f4f0e6">
      <rect x="146" y="331" width="220" height="14" rx="2"/>
      <rect x="126" y="324" width="14" height="28" rx="2"/>
      <rect x="372" y="324" width="14" height="28" rx="2"/>
      <rect x="107" y="328" width="11" height="20" rx="2"/>
      <rect x="394" y="328" width="11" height="20" rx="2"/>
    </g>
  </g>
</svg>
